<svg aria-hidden="true" style="width:0;height:0;position:absolute;overflow:hidden" xmlns="http://www.w3.org/2000/svg"><defs><symbol id="icon-telegram" viewBox="0 0 32 32"><path fill="#f8d24e" style="fill:var(--color1,#f8d24e)" d="M31.259 16.43c0 8.571-6.946 15.519-15.515 15.519S.229 25.001.229 16.43 7.175.911 15.744.911 31.259 7.859 31.259 16.43z"/><path d="m12.705 18.734-.308 4.044c.441 0 .631-.177.86-.389l2.066-1.843 4.281 2.926c.785.409 1.338.193 1.55-.674l2.811-12.292c.249-1.083-.42-1.507-1.185-1.241L6.264 15.168c-1.127.408-1.11.995-.192 1.261l4.223 1.226 9.808-5.729c.462-.285.881-.127.536.158l-7.934 6.65z"/></symbol><symbol id="icon-Fb" viewBox="0 0 31 32"><path fill="#f8d24e" style="fill:var(--color1,#f8d24e)" d="M15.515 31.948c8.569 0 15.515-6.948 15.515-15.519S24.084.91 15.515.91 0 7.858 0 16.429s6.946 15.519 15.515 15.519z"/><path d="M19.826 16.412h-2.531v9.329H13.46v-9.329h-1.824v-3.279h1.824v-2.122c0-1.517.716-3.893 3.869-3.893l2.841.012v3.183h-2.061c-.338 0-.813.17-.813.894v1.93h2.866l-.335 3.276z"/></symbol><symbol id="icon-Git" viewBox="0 0 31 32"><path fill="#f8d24e" style="fill:var(--color1,#f8d24e)" d="M31.03 16.43c0 8.571-6.946 15.519-15.515 15.519S0 25.001 0 16.43 6.946.911 15.515.911 31.03 7.859 31.03 16.43z"/><path d="M15.515 7.301c-5.013 0-9.127 4.115-9.127 9.129 0 4.279 3.002 8.165 6.988 9.129v-3.02a2.22 2.22 0 0 1-1.16-.03c-.539-.159-.978-.519-1.303-1.067-.207-.35-.575-.729-.958-.701l-.094-1.066c.829-.071 1.546.505 1.972 1.221.189.318.407.505.686.587.27.079.56.041.898-.078.085-.677.395-.93.629-1.286-2.377-.355-3.325-1.616-3.701-2.612-.498-1.322-.231-2.974.65-4.017.017-.02.048-.074.036-.111-.404-1.221.088-2.23.106-2.338.466.138.542-.139 2.025.763l.256.154c.107.064.073.027.181.019a7.735 7.735 0 0 1 1.915-.269 7.768 7.768 0 0 1 1.942.276l.083.008c-.007-.001.023-.005.073-.035 1.853-1.123 1.786-.756 2.283-.917.018.107.504 1.133.104 2.339-.054.166 1.606 1.687.686 4.128-.376.996-1.323 2.257-3.7 2.612.305.465.671.712.669 1.67v3.77c3.986-.963 6.988-4.85 6.988-9.129 0-5.014-4.114-9.129-9.126-9.129z"/></symbol><symbol id="icon-close_black" viewBox="0 0 32 32"><path d="m17.253 16 7.37-7.37a.89.89 0 0 0-1.256-1.252l.001-.001L16 14.747 8.63 7.369a.893.893 0 0 0-1.262 1.262l-.001-.001L14.745 16l-7.376 7.368a.89.89 0 1 0 1.252 1.256l.001-.001 7.376-7.37 7.37 7.37a.89.89 0 0 0 1.254-1.256l.001.001L17.253 16z"/></symbol><symbol id="icon-burger" viewBox="0 0 32 32"><path fill="none" stroke="#fff" style="stroke:var(--color2,#fff)" stroke-linecap="round" stroke-width="2" d="M6 10h20M6 16h20M6 22h20"/></symbol><symbol id="icon-close_wh" viewBox="0 0 32 32"><path fill="#fcfcfc" style="fill:var(--color3,#fcfcfc)" d="M23.884 6.706 16 14.59 8.116 6.706a.996.996 0 0 0-1.672.736c0 .26.099.497.262.674l-.001-.001 7.88 7.884-7.882 7.882a.998.998 0 0 0 1.41 1.412l7.886-7.882 7.884 7.884a.996.996 0 0 0 1.672-.736.992.992 0 0 0-.262-.674l.001.001-7.884-7.884 7.884-7.886a.998.998 0 0 0-1.41-1.412v.002z"/></symbol><symbol id="icon-logo" viewBox="0 0 31 32"><path fill="#f8d24e" style="fill:var(--color4,#f8d24e)" d="M15.017 13.663c.92-2.46-.985-3.806-2.247-4.691-.241-.181-.483-.35-.678-.504a2.356 2.356 0 0 1-.736-1.088l-.005-.017a2.346 2.346 0 0 1-.015-1.341l-.004.016a.25.25 0 0 0-.075-.256.261.261 0 0 0-.268-.052l.002-.001a4.285 4.285 0 0 0-1.177.693l.007-.006a2.765 2.765 0 0 0-.79.944l-.007.016c-.18.352-.286.767-.287 1.207a3.211 3.211 0 0 0-.619.636l-.006.009a2.325 2.325 0 0 0-.46 1.516v-.005a3.004 3.004 0 0 0-.83 1.264l-.006.021a2.992 2.992 0 0 0-.081 1.544l-.003-.019a.811.811 0 0 0-.396.692c0 .078.011.154.032.225l-.001-.006c.049.171.153.321.297.427s.319.164.499.163h.017v1.398a.537.537 0 0 0 .543.536h.422l.688 5.876c.014.131.077.252.176.34s.228.136.362.136h2.862a.547.547 0 0 0 .54-.476l.688-5.876h.422a.55.55 0 0 0 .384-.157.528.528 0 0 0 .159-.379v-1.399H14.444a.828.828 0 0 0 .581-.238.806.806 0 0 0 .241-.574v-.009a.789.789 0 0 0-.241-.569l-.007.002zM8.822 9.201c.348 1.287 1.69 1.794 2.913 2.246a.266.266 0 0 0 .32-.034.257.257 0 0 0 .081-.188l-.001-.018v.001a.257.257 0 0 0-.108-.192l-.001-.001a.262.262 0 0 0-.104-.044h-.002c-1.318-.492-2.561-.952-2.655-2.267a2.164 2.164 0 0 1 .206-1.066l-.006.013a2.22 2.22 0 0 1 .675-.83l.006-.004c.184-.15.381-.284.589-.4a3.127 3.127 0 0 0 .001.507l-.001-.011c.03.4.141.767.315 1.096l-.007-.015c.182.345.421.637.707.873l.005.004c.2.169.449.343.724.528.635.45 1.356.952 1.815 1.632a2.51 2.51 0 0 1 .257 2.431l.006-.016H13.49c-2.198 0-4.725-.599-5.225-2.279a1.892 1.892 0 0 1 .006-1.07l-.003.013c.107-.358.304-.662.565-.895l.002-.002-.012-.012zm1.979 8.109.806.795-.806.795-.806-.799.806-.79zm1.849 2.087-.666.657-.806-.795.806-.792.7.687-.034.243zm-1.849 1.822-.806-.795.806-.795.806.795-.806.795zm-.369-1.955-.806.795-.671-.661-.029-.238.7-.687.806.792zm-1.178 1.16-.162.159-.041-.362.203.202zm-.085.814.456-.45.886.88c.004.018.01.035.017.052H9.225l-.056-.483zm2.81-.45.456.45-.056.476H11.04l.939-.925zm.53-.204-.162-.159.205-.202-.044.362zm.242-2.079-.403-.404.512-.504-.109.909zm-.775-.766-.765-.752h1.53l-.765.752zm-2.353 0-.765-.752h1.53l-.765.752zm2.607 5.081H9.37c-.009-.001-.015-.008-.017-.017l-.068-.571h3.031l-.065.571a.02.02 0 0 1-.019.017h-.003zm2.213-8.288h-.84l-.025-.001a.27.27 0 0 0-.178.068.256.256 0 0 0 0 .384.26.26 0 0 0 .176.067l.027-.001h-.001.299v1.399a.023.023 0 0 1-.006.012.018.018 0 0 1-.012.005H7.711a.019.019 0 0 1-.019-.017v-1.399h4.781a.266.266 0 0 0 .169-.084.257.257 0 0 0 0-.349.263.263 0 0 0-.169-.083H7.163a.3.3 0 0 1-.229-.077.29.29 0 0 1-.097-.218c0-.086.037-.164.097-.217a.3.3 0 0 1 .23-.076h-.001.548a.262.262 0 0 0 .169-.084.257.257 0 0 0 0-.349.269.269 0 0 0-.169-.084h-.484a2.527 2.527 0 0 1 .036-1.109l-.004.018c.098-.376.268-.704.497-.982l-.004.004c.169.518.603 1.228 1.69 1.791 1.021.525 2.372.795 4.016.795h.965l.027-.001a.294.294 0 0 1 .299.295v.001a.289.289 0 0 1-.097.217.3.3 0 0 1-.201.077l-.029-.001H14.44z"/><path fill="#f8d24e" style="fill:var(--color4,#f8d24e)" d="m16.147 21.509-.19.292.004.003.187-.294zm2.047.098.348-.008-.009-.403-.397.068.058.343zm.023 1.071.089.337.266-.07-.006-.275-.348.008zm-2.686.051.078-.339-.002-.001-.076.34zm-1.326-.591.225-.266h-.001l-.225.266zm-.479-1.088.348.002v-.002h-.348zm.166-.762-.312-.154v.001l.312.153zm1.068-.911.124.325.001-.001-.125-.325zm3.42-.088.347.027.023-.294-.286-.071-.084.338zm-.085 1.091-.065.342.382.072.03-.387-.347-.027zm-.928-.447c-.523 0-.962.056-1.283.197a1.047 1.047 0 0 0-.423.318.812.812 0 0 0-.166.494v.01h.696v-.008c0-.028.009-.054.025-.075a.363.363 0 0 1 .148-.101c.187-.082.509-.138 1.002-.138v-.697zm-1.871 1.018c0 .358.161.654.461.849l.38-.583a.282.282 0 0 1-.145-.266h-.696zm.464.852c.285.18.66.248 1.081.248v-.696c-.364 0-.584-.061-.708-.14l-.373.588zm1.081.248c.413 0 .817-.033 1.211-.1l-.116-.686c-.325.057-.7.09-1.082.09h-.013.001v.696zm.804-.436.024 1.071.696-.016-.024-1.071-.696.015zm.284.726a5.16 5.16 0 0 1-1.319.159v.696c.534 0 1.033-.06 1.496-.181l-.177-.674zm-1.319.159c-.492 0-.89-.039-1.2-.11l-.156.678c.379.087.833.128 1.357.128V22.5zm-1.203-.111a3.455 3.455 0 0 1-.732-.231l-.306.626c.23.112.529.205.886.285l.152-.68zm-.732-.231a2.093 2.093 0 0 1-.447-.289l.003.003-.451.531c.171.144.365.271.573.373l.017.007.306-.626zm-.445-.286c-.237-.2-.358-.461-.356-.82l-.696-.004c-.003.547.196 1.011.603 1.356l.45-.532zm-.356-.822c0-.234.046-.435.131-.608l-.626-.306a2.054 2.054 0 0 0-.202.915h.696zm.131-.608c.158-.322.438-.572.878-.739l-.247-.651c-.575.218-1.007.576-1.256 1.083l.625.307zm.88-.74c.463-.178.98-.269 1.555-.269v-.696c-.65 0-1.252.103-1.804.316l.25.65zm1.555-.269c.586 0 1.138.065 1.657.194l.168-.676a7.578 7.578 0 0 0-1.825-.214v.696zm1.393-.172-.085 1.091.694.054.085-1.092-.694-.054zm.327.777a5.445 5.445 0 0 0-.993-.105v.696c.245 0 .532.03.863.092l.13-.684zm3.397.556-.002.348.354.002-.004-.354-.348.004zm-.149-.452-.237.255.003.003.234-.258zm-.868.034.241.251.003-.003-.244-.249zm-.21.411-.344-.056-.066.402.408.002.002-.348zm2.56 1.857.211.277.125-.095.012-.157-.347-.026zm-.751.279-.075-.34h-.002l.077.34zm-2.612-.096-.118.327.003.001.116-.328zm-.595-.316-.216.273.002.002.002.002.212-.276zm-.397-.5-.312.154.001.002.311-.156zm.408-2.111zm3.182-.378.139-.319-.003-.002-.136.321zm.799.735-.313.152.001.002.312-.154zm.136.609.347.025.001-.013v-.013h-.348zm-.041.561-.002.348.325.002.023-.324-.347-.026zm-2.757-.014.002-.348-.454-.002.116.439.337-.089zm.394.486-.171.303.001.001.17-.304zm2.115-.119v-.348h-.07l-.064.027.134.322zm.184 0 .347.026.028-.374h-.375v.348zm-1.05-.99c-.003-.252-.06-.522-.264-.707l-.468.516c-.004-.004.004.001.014.031a.552.552 0 0 1 .022.167l.696-.007zm-.261-.703c-.182-.17-.422-.226-.658-.226v.696c.136 0 .177.032.185.04l.474-.51zm-.658-.226c-.259 0-.5.081-.689.266l.487.498c.038-.037.094-.067.202-.067v-.697zm-.686.264a1.064 1.064 0 0 0-.313.6l-.001.006.687.113a.368.368 0 0 1 .108-.217l-.482-.502zm.028 1.01 1.227.007.004-.696-1.228-.007-.004.696zm2.352 1.231c-.077.058-.263.139-.616.216l.149.68c.367-.081.682-.186.887-.341l-.421-.555zm-.618.217a4.292 4.292 0 0 1-.973.114h-.001v.696c.368 0 .744-.044 1.128-.131l-.154-.679zm-.974.114a6.27 6.27 0 0 1-.814-.044l-.093.69c.256.034.559.051.907.051v-.696zm-.814-.045a3.151 3.151 0 0 1-.653-.16l.022.007-.232.657c.253.09.51.152.77.187l.093-.69zm-.628-.152a1.858 1.858 0 0 1-.502-.265l-.424.552c.198.152.429.273.688.367l.237-.655zm-.498-.262a1.115 1.115 0 0 1-.299-.376l-.003-.007-.623.311c.121.245.287.451.489.614l.003.003.433-.546zm-.301-.381a1.307 1.307 0 0 1-.117-.583h-.696c0 .326.058.628.189.892l.624-.308zm-.117-.583c0-.245.044-.461.128-.654l-.639-.277c-.125.288-.185.6-.185.931h.696zm.128-.654c.088-.202.195-.352.317-.46l-.463-.52a1.985 1.985 0 0 0-.492.703l.639.277zm.316-.46c.374-.333.945-.527 1.767-.527v-.696c-.923 0-1.684.217-2.231.704l.463.52zm1.768-.527c.369 0 .717.07 1.047.21l.272-.641a3.294 3.294 0 0 0-1.307-.266h-.014.001v.696zm1.044.209c.308.134.507.325.625.567l.626-.304c-.199-.411-.533-.71-.973-.901l-.278.638zm.626.569c.065.131.1.281.1.454h.696a1.71 1.71 0 0 0-.172-.763l-.624.308zm.101.429-.041.561.694.051.041-.561-.694-.05zm.308.238-2.757-.014-.003.696 2.757.014.003-.696zm-3.096.424c.082.308.281.542.56.7l.342-.606c-.138-.078-.202-.168-.229-.272l-.673.178zm.561.701c.282.158.636.221 1.03.221v-.696c-.331 0-.551-.054-.69-.132l-.34.608zm1.03.221c.423 0 .889-.115 1.388-.323l-.268-.643c-.447.186-.819.269-1.121.269v.696zm1.255-.296h.184v-.696h-.183v.696zm-.163-.374-.065.864.694.052.065-.864-.694-.052z"/></symbol><symbol id="icon-arrow-hero" viewBox="0 0 82 32"><path fill="#FCFCFC" style="fill:var(--color1,#fcfcfc)" d="M81.414 17.414a2 2 0 0 0 0-2.828L68.686 1.858a2 2 0 1 0-2.828 2.828L77.172 16 65.858 27.314a2 2 0 1 0 2.828 2.828l12.728-12.728zM0 18h80v-4H0v4z"/></symbol><symbol id="icon-arrow-right" viewBox="0 0 82 32"><path d="M81.414 17.414a2 2 0 0 0 0-2.828L68.686 1.858a2 2 0 1 0-2.828 2.828L77.172 16 65.858 27.314a2 2 0 1 0 2.828 2.828l12.728-12.728zM0 18h80v-4H0v4z"/></symbol><symbol id="icon-arrow-up" viewBox="0 0 32 32"><path d="m27.414 12.586-10-10a2 2 0 0 0-2.828 0l-10 10a2 2 0 1 0 2.828 2.828L14 8.828V28a2 2 0 1 0 4 0V8.828l6.586 6.586c.39.39.902.586 1.414.586s1.024-.195 1.414-.586a2 2 0 0 0 0-2.828z"/></symbol></defs></svg>