<svg aria-hidden="true" style="position: absolute; width: 0; height: 0; overflow: hidden;" version="1.1" xmlns="http://www.w3.org/2000/svg" xmlns:xlink="http://www.w3.org/1999/xlink">
<defs>
<symbol id="icon-telegram" viewBox="0 0 32 32">
<path fill="#f8d24e" style="fill: var(--color1, #f8d24e)" d="M31.259 16.43c0 8.571-6.946 15.519-15.515 15.519s-15.515-6.948-15.515-15.519c0-8.571 6.946-15.519 15.515-15.519s15.515 6.948 15.515 15.519z"></path>
<path  d="M12.705 18.734l-0.308 4.044c0.441 0 0.631-0.177 0.86-0.389l2.066-1.843 4.281 2.926c0.785 0.409 1.338 0.193 1.55-0.674l2.811-12.292c0.249-1.083-0.42-1.507-1.185-1.241l-16.516 5.903c-1.127 0.408-1.11 0.995-0.192 1.261l4.223 1.226 9.808-5.729c0.462-0.285 0.881-0.127 0.536 0.158l-7.934 6.65z"></path>
</symbol>
<symbol id="icon-Fb" viewBox="0 0 31 32">
<path fill="#f8d24e" style="fill: var(--color1, #f8d24e)" d="M15.515 31.948c8.569 0 15.515-6.948 15.515-15.519s-6.946-15.519-15.515-15.519c-8.569 0-15.515 6.948-15.515 15.519s6.946 15.519 15.515 15.519z"></path>
<path  d="M19.826 16.412h-2.531v9.329h-3.835v-9.329h-1.824v-3.279h1.824v-2.122c0-1.517 0.716-3.893 3.869-3.893l2.841 0.012v3.183h-2.061c-0.338 0-0.813 0.17-0.813 0.894v1.93h2.866l-0.335 3.276z"></path>
</symbol>
<symbol id="icon-Git" viewBox="0 0 31 32">
<path fill="#f8d24e" style="fill: var(--color1, #f8d24e)" d="M31.030 16.43c0 8.571-6.946 15.519-15.515 15.519s-15.515-6.948-15.515-15.519c0-8.571 6.946-15.519 15.515-15.519s15.515 6.948 15.515 15.519z"></path>
<path  d="M15.515 7.301c-5.013 0-9.127 4.115-9.127 9.129 0 4.279 3.002 8.165 6.988 9.129v-3.020c-0.395 0.087-0.758 0.089-1.16-0.030-0.539-0.159-0.978-0.519-1.303-1.067-0.207-0.35-0.575-0.729-0.958-0.701l-0.094-1.066c0.829-0.071 1.546 0.505 1.972 1.221 0.189 0.318 0.407 0.505 0.686 0.587 0.27 0.079 0.56 0.041 0.898-0.078 0.085-0.677 0.395-0.93 0.629-1.286v-0c-2.377-0.355-3.325-1.616-3.701-2.612-0.498-1.322-0.231-2.974 0.65-4.017 0.017-0.020 0.048-0.074 0.036-0.111-0.404-1.221 0.088-2.23 0.106-2.338 0.466 0.138 0.542-0.139 2.025 0.763l0.256 0.154c0.107 0.064 0.073 0.027 0.181 0.019 0.619-0.168 1.272-0.261 1.915-0.269 0.648 0.008 1.297 0.101 1.942 0.276l0.083 0.008c-0.007-0.001 0.023-0.005 0.073-0.035 1.853-1.123 1.786-0.756 2.283-0.917 0.018 0.107 0.504 1.133 0.104 2.339-0.054 0.166 1.606 1.687 0.686 4.128-0.376 0.996-1.323 2.257-3.7 2.612v0c0.305 0.465 0.671 0.712 0.669 1.67v3.77c3.986-0.963 6.988-4.85 6.988-9.129 0-5.014-4.114-9.129-9.126-9.129v0z"></path>
</symbol>
<symbol id="icon-close_black" viewBox="0 0 32 32">
<path d="M17.253 16l7.37-7.37c0.13-0.154 0.209-0.354 0.209-0.573 0-0.491-0.398-0.89-0.89-0.89-0.219 0-0.42 0.079-0.575 0.211l0.001-0.001-7.368 7.37-7.37-7.378c-0.159-0.147-0.372-0.237-0.606-0.237-0.493 0-0.893 0.4-0.893 0.893 0 0.234 0.090 0.447 0.237 0.606l-0.001-0.001 7.378 7.37-7.376 7.368c-0.194 0.164-0.316 0.408-0.316 0.68 0 0.491 0.398 0.89 0.89 0.89 0.272 0 0.515-0.122 0.678-0.314l0.001-0.001 7.376-7.37 7.37 7.37c0.155 0.133 0.357 0.214 0.579 0.214 0.491 0 0.89-0.398 0.89-0.89 0-0.222-0.081-0.424-0.215-0.58l0.001 0.001-7.37-7.368z"></path>
</symbol>
<symbol id="icon-burger" viewBox="0 0 32 32">
<path fill="none" stroke="#fff" style="stroke: var(--color2, #fff)" stroke-linejoin="miter" stroke-linecap="round" stroke-miterlimit="4" stroke-width="2" d="M6 10h20M6 16h20M6 22h20"></path>
</symbol>
<symbol id="icon-close_wh" viewBox="0 0 32 32">
<path fill="#fcfcfc" style="fill: var(--color3, #fcfcfc)" d="M23.884 6.706l-7.884 7.884-7.884-7.884c-0.177-0.162-0.414-0.262-0.674-0.262-0.551 0-0.998 0.447-0.998 0.998 0 0.26 0.099 0.497 0.262 0.674l-0.001-0.001 7.88 7.884-7.882 7.882c-0.181 0.181-0.293 0.43-0.293 0.706 0 0.551 0.447 0.998 0.998 0.998 0.275 0 0.524-0.111 0.705-0.292v0l7.886-7.882 7.884 7.884c0.177 0.162 0.414 0.262 0.674 0.262 0.551 0 0.998-0.447 0.998-0.998 0-0.26-0.099-0.497-0.262-0.674l0.001 0.001-7.884-7.884 7.884-7.886c0.181-0.181 0.293-0.43 0.293-0.706 0-0.551-0.447-0.998-0.998-0.998-0.275 0-0.524 0.111-0.705 0.292v0 0.002z"></path>
</symbol>
<symbol id="icon-logo" viewBox="0 0 31 32">
<path fill="#f8d24e" style="fill: var(--color4, #f8d24e)" d="M15.017 13.663c0.92-2.46-0.985-3.806-2.247-4.691-0.241-0.181-0.483-0.35-0.678-0.504-0.341-0.285-0.599-0.66-0.736-1.088l-0.005-0.017c-0.067-0.207-0.106-0.446-0.106-0.694 0-0.224 0.032-0.441 0.091-0.647l-0.004 0.016c0.006-0.020 0.009-0.044 0.009-0.068 0-0.075-0.032-0.142-0.084-0.188l-0-0c-0.046-0.042-0.108-0.068-0.177-0.068-0.032 0-0.063 0.006-0.091 0.016l0.002-0.001c-0.448 0.177-0.835 0.409-1.177 0.693l0.007-0.006c-0.333 0.254-0.602 0.575-0.79 0.944l-0.007 0.016c-0.18 0.352-0.286 0.767-0.287 1.207v0c-0.239 0.186-0.445 0.399-0.619 0.636l-0.006 0.009c-0.289 0.385-0.463 0.871-0.463 1.398 0 0.039 0.001 0.079 0.003 0.118l-0-0.005c-0.377 0.342-0.665 0.775-0.83 1.264l-0.006 0.021c-0.093 0.274-0.147 0.59-0.147 0.919 0 0.214 0.023 0.424 0.066 0.625l-0.003-0.019c-0.154 0.092-0.273 0.23-0.339 0.395-0.036 0.088-0.057 0.19-0.057 0.297 0 0.078 0.011 0.154 0.032 0.225l-0.001-0.006c0.049 0.171 0.153 0.321 0.297 0.427s0.319 0.164 0.499 0.163h0.017v1.398c0 0.142 0.058 0.278 0.159 0.379s0.24 0.157 0.384 0.157h0.422l0.688 5.876c0.014 0.131 0.077 0.252 0.176 0.34s0.228 0.136 0.362 0.136h2.862c0.134-0 0.262-0.049 0.362-0.137s0.163-0.208 0.178-0.339l0.688-5.876h0.422c0.144 0 0.282-0.057 0.384-0.157 0.098-0.096 0.159-0.23 0.159-0.379v-1.399h0.017c0 0 0.001 0 0.001 0 0.226 0 0.431-0.091 0.581-0.238l-0 0c0.154-0.152 0.241-0.358 0.241-0.574 0-0.003 0-0.006 0-0.009 0-0.223-0.092-0.425-0.241-0.569l-0-0-0.007 0.002zM8.822 9.201c0.348 1.287 1.69 1.794 2.913 2.246 0.039 0.024 0.087 0.038 0.138 0.038 0.071 0 0.135-0.028 0.182-0.072l-0 0c0.050-0.047 0.081-0.114 0.081-0.188 0-0.006-0-0.012-0.001-0.018l0 0.001c-0.006-0.080-0.047-0.149-0.108-0.192l-0.001-0.001c-0.030-0.021-0.065-0.037-0.104-0.044l-0.002-0c-1.318-0.492-2.561-0.952-2.655-2.267-0.003-0.039-0.004-0.085-0.004-0.132 0-0.334 0.075-0.651 0.21-0.934l-0.006 0.013c0.16-0.337 0.391-0.617 0.675-0.83l0.006-0.004c0.184-0.15 0.381-0.284 0.589-0.4-0.006 0.074-0.010 0.16-0.010 0.248s0.004 0.173 0.011 0.259l-0.001-0.011c0.030 0.4 0.141 0.767 0.315 1.096l-0.007-0.015c0.182 0.345 0.421 0.637 0.707 0.873l0.005 0.004c0.2 0.169 0.449 0.343 0.724 0.528 0.635 0.45 1.356 0.952 1.815 1.632 0.286 0.402 0.458 0.904 0.458 1.445 0 0.35-0.072 0.683-0.201 0.986l0.006-0.016h-1.067c-2.198 0-4.725-0.599-5.225-2.279-0.047-0.157-0.074-0.337-0.074-0.524 0-0.19 0.028-0.373 0.080-0.546l-0.003 0.013c0.107-0.358 0.304-0.662 0.565-0.895l0.002-0.002-0.012-0.012zM10.801 17.31l0.806 0.795-0.806 0.795-0.806-0.799 0.806-0.79zM12.65 19.397l-0.666 0.657-0.806-0.795 0.806-0.792 0.7 0.687-0.034 0.243zM10.801 21.219l-0.806-0.795 0.806-0.795 0.806 0.795-0.806 0.795zM10.432 19.264l-0.806 0.795-0.671-0.661-0.029-0.238 0.7-0.687 0.806 0.792zM9.254 20.424l-0.162 0.159-0.041-0.362 0.203 0.202zM9.169 21.238l0.456-0.45 0.886 0.88c0.004 0.018 0.010 0.035 0.017 0.052h-1.303l-0.056-0.483zM11.979 20.788l0.456 0.45-0.056 0.476h-1.339l0.939-0.925zM12.509 20.584l-0.162-0.159 0.205-0.202-0.044 0.362zM12.751 18.505l-0.403-0.404 0.512-0.504-0.109 0.909zM11.976 17.739l-0.765-0.752h1.53l-0.765 0.752zM9.623 17.739l-0.765-0.752h1.53l-0.765 0.752zM12.23 22.82h-2.86c-0.009-0.001-0.015-0.008-0.017-0.017v-0l-0.068-0.571h3.031l-0.065 0.571c-0.001 0.009-0.009 0.017-0.019 0.017-0 0-0 0-0 0v0h-0.003zM14.443 14.532h-0.84c-0.007-0.001-0.016-0.001-0.025-0.001-0.068 0-0.13 0.026-0.178 0.068l0-0c-0.053 0.047-0.086 0.116-0.086 0.192v0c0 0 0 0 0 0 0 0.076 0.033 0.145 0.086 0.192l0 0c0.046 0.042 0.108 0.067 0.176 0.067 0.009 0 0.018-0 0.027-0.001l-0.001 0h0.299v1.399c-0.001 0.005-0.003 0.009-0.006 0.012l-0 0c-0.003 0.003-0.008 0.005-0.012 0.005-0 0-0 0-0.001 0h-6.171c-0 0-0 0-0 0-0.010 0-0.018-0.007-0.019-0.017v-1.399h4.781c0.067-0.007 0.127-0.038 0.169-0.084l0-0c0.042-0.046 0.068-0.107 0.068-0.174s-0.026-0.129-0.068-0.175l0 0c-0.043-0.046-0.102-0.077-0.169-0.083l-0.001-0h-5.309c-0.008 0.001-0.017 0.001-0.026 0.001-0.078 0-0.149-0.029-0.203-0.078l0 0c-0.060-0.054-0.097-0.131-0.097-0.218v-0c0-0 0-0 0-0 0-0.086 0.037-0.164 0.097-0.217l0-0c0.053-0.048 0.124-0.077 0.201-0.077 0.010 0 0.019 0 0.029 0.001l-0.001-0h0.548c0.067-0.007 0.127-0.037 0.169-0.084l0-0c0.042-0.046 0.068-0.107 0.068-0.174s-0.026-0.129-0.068-0.175l0 0c-0.043-0.046-0.102-0.077-0.169-0.084l-0.001-0h-0.483c-0.028-0.142-0.045-0.305-0.045-0.472 0-0.22 0.028-0.433 0.081-0.637l-0.004 0.018c0.098-0.376 0.268-0.704 0.497-0.982l-0.004 0.004c0.169 0.518 0.603 1.228 1.69 1.791 1.021 0.525 2.372 0.795 4.016 0.795h0.965c0.008-0.001 0.017-0.001 0.027-0.001 0.078 0 0.149 0.029 0.202 0.077l-0-0c0.059 0.054 0.097 0.131 0.097 0.218v0c0 0 0 0 0 0.001 0 0.086-0.037 0.164-0.097 0.217l-0 0c-0.053 0.048-0.124 0.077-0.201 0.077-0.010 0-0.019-0-0.029-0.001l0.001 0h0.017z"></path>
<path fill="#f8d24e" style="fill: var(--color4, #f8d24e)" d="M16.147 21.509l-0.19 0.292 0.004 0.003 0.187-0.294zM18.194 21.607l0.348-0.008-0.009-0.403-0.397 0.068 0.058 0.343zM18.217 22.678l0.089 0.337 0.266-0.070-0.006-0.275-0.348 0.008zM15.531 22.729l0.078-0.339-0.002-0.001-0.076 0.34zM14.205 22.138l0.225-0.266h-0.001l-0.225 0.266zM13.726 21.050l0.348 0.002v-0.002h-0.348zM13.892 20.288l-0.312-0.154v0.001l0.312 0.153zM14.96 19.377l0.124 0.325 0.001-0.001-0.125-0.325zM18.38 19.289l0.347 0.027 0.023-0.294-0.286-0.071-0.084 0.338zM18.295 20.38l-0.065 0.342 0.382 0.072 0.030-0.387-0.347-0.027zM17.367 19.933c-0.523 0-0.962 0.056-1.283 0.197-0.164 0.072-0.314 0.174-0.423 0.318-0.104 0.136-0.166 0.308-0.166 0.494 0 0.003 0 0.006 0 0.010v-0h0.696c-0-0.002-0-0.005-0-0.008 0-0.028 0.009-0.054 0.025-0.075l-0 0c0.018-0.024 0.059-0.062 0.148-0.101 0.187-0.082 0.509-0.138 1.002-0.138v-0.697zM15.496 20.951c0 0.358 0.161 0.654 0.461 0.849l0.38-0.583c-0.104-0.067-0.145-0.144-0.145-0.266h-0.696zM15.96 21.803c0.285 0.18 0.66 0.248 1.081 0.248v-0.696c-0.364 0-0.584-0.061-0.708-0.14l-0.373 0.588zM17.041 22.051c0.413 0 0.817-0.033 1.211-0.1l-0.116-0.686c-0.325 0.057-0.7 0.090-1.082 0.090-0.004 0-0.009 0-0.013 0h0.001v0.696zM17.845 21.615l0.024 1.071 0.696-0.016-0.024-1.071-0.696 0.015zM18.129 22.341c-0.398 0.105-0.837 0.159-1.319 0.159v0.696c0.534 0 1.033-0.060 1.496-0.181l-0.177-0.674zM16.81 22.5c-0.492 0-0.89-0.039-1.2-0.11l-0.156 0.678c0.379 0.087 0.833 0.128 1.357 0.128v-0.696zM15.607 22.389c-0.332-0.074-0.572-0.153-0.732-0.231l-0.306 0.626c0.23 0.112 0.529 0.205 0.886 0.285l0.152-0.68zM14.875 22.158c-0.169-0.082-0.315-0.177-0.447-0.289l0.003 0.003-0.451 0.531c0.171 0.144 0.365 0.271 0.573 0.373l0.017 0.007 0.306-0.626zM14.43 21.872c-0.237-0.2-0.358-0.461-0.356-0.82l-0.696-0.004c-0.003 0.547 0.196 1.011 0.603 1.356l0.45-0.532zM14.074 21.050c0-0.234 0.046-0.435 0.131-0.608l-0.626-0.306c-0.137 0.279-0.202 0.587-0.202 0.915h0.696zM14.205 20.442c0.158-0.322 0.438-0.572 0.878-0.739l-0.247-0.651c-0.575 0.218-1.007 0.576-1.256 1.083l0.625 0.307zM15.085 19.702c0.463-0.178 0.98-0.269 1.555-0.269v-0.696c-0.65 0-1.252 0.103-1.804 0.316l0.25 0.65zM16.64 19.433c0.586 0 1.138 0.065 1.657 0.194l0.168-0.676c-0.578-0.143-1.187-0.214-1.825-0.214v0.696zM18.033 19.261l-0.085 1.091 0.694 0.054 0.085-1.092-0.694-0.054zM18.36 20.038c-0.362-0.068-0.694-0.105-0.993-0.105v0.696c0.245 0 0.532 0.030 0.863 0.092l0.13-0.684zM21.757 20.594l-0.002 0.348 0.354 0.002-0.004-0.354-0.348 0.004zM21.608 20.142l-0.237 0.255 0.003 0.003 0.234-0.258zM20.74 20.176l0.241 0.251 0.003-0.003-0.244-0.249zM20.53 20.587l-0.344-0.056-0.066 0.402 0.408 0.002 0.002-0.348zM23.090 22.444l0.211 0.277 0.125-0.095 0.012-0.157-0.347-0.026zM22.339 22.723l-0.075-0.34-0.002 0 0.077 0.34zM19.727 22.627l-0.118 0.327 0.003 0.001 0.116-0.328zM19.132 22.311l-0.216 0.273 0.002 0.002 0.002 0.002 0.212-0.276zM18.735 21.811l-0.312 0.154 0.001 0.002 0.311-0.156zM19.143 19.7v0zM22.325 19.322l0.139-0.319-0.003-0.002-0.136 0.321zM23.124 20.057l-0.313 0.152 0.001 0.002 0.312-0.154zM23.26 20.666l0.347 0.025 0.001-0.013v-0.013h-0.348zM23.219 21.227l-0.002 0.348 0.325 0.002 0.023-0.324-0.347-0.026zM20.462 21.213l0.002-0.348-0.454-0.002 0.116 0.439 0.337-0.089zM20.856 21.699l-0.171 0.303 0.001 0.001 0.17-0.304zM22.971 21.58v-0.348h-0.070l-0.064 0.027 0.134 0.322zM23.155 21.58l0.347 0.026 0.028-0.374h-0.375v0.348zM22.105 20.59c-0.003-0.252-0.060-0.522-0.264-0.707l-0.468 0.516c-0.004-0.004 0.004 0.001 0.014 0.031 0.011 0.032 0.021 0.085 0.022 0.167l0.696-0.007zM21.844 19.887c-0.182-0.17-0.422-0.226-0.658-0.226v0.696c0.136 0 0.177 0.032 0.185 0.040l0.474-0.51zM21.186 19.661c-0.259 0-0.5 0.081-0.689 0.266l0.487 0.498c0.038-0.037 0.094-0.067 0.202-0.067v-0.697zM20.5 19.925c-0.163 0.157-0.276 0.366-0.313 0.6l-0.001 0.006 0.687 0.113c0.016-0.097 0.053-0.164 0.108-0.217l-0.482-0.502zM20.528 20.935l1.227 0.007 0.004-0.696-1.228-0.007-0.004 0.696zM22.88 22.166c-0.077 0.058-0.263 0.139-0.616 0.216l0.149 0.68c0.367-0.081 0.682-0.186 0.887-0.341l-0.421-0.555zM22.262 22.383c-0.292 0.071-0.628 0.112-0.973 0.114h-0.001v0.696c0.368 0 0.744-0.044 1.128-0.131l-0.154-0.679zM21.288 22.497c-0.328 0-0.598-0.015-0.814-0.044l-0.093 0.69c0.256 0.034 0.559 0.051 0.907 0.051v-0.696zM20.474 22.452c-0.237-0.033-0.45-0.086-0.653-0.16l0.022 0.007-0.232 0.657c0.253 0.090 0.51 0.152 0.77 0.187l0.093-0.69zM19.846 22.3c-0.204-0.074-0.369-0.163-0.502-0.265l-0.424 0.552c0.198 0.152 0.429 0.273 0.688 0.367l0.237-0.655zM19.348 22.038c-0.126-0.103-0.228-0.23-0.299-0.376l-0.003-0.007-0.623 0.311c0.121 0.245 0.287 0.451 0.489 0.614l0.003 0.003 0.433-0.546zM19.047 21.657c-0.073-0.148-0.117-0.339-0.117-0.583h-0.696c0 0.326 0.058 0.628 0.189 0.892l0.624-0.308zM18.93 21.074c0-0.245 0.044-0.461 0.128-0.654l-0.639-0.277c-0.125 0.288-0.185 0.6-0.185 0.931h0.696zM19.058 20.42c0.088-0.202 0.195-0.352 0.317-0.46l-0.463-0.52c-0.209 0.187-0.372 0.425-0.492 0.703l0.639 0.277zM19.374 19.96c0.374-0.333 0.945-0.527 1.767-0.527v-0.696c-0.923 0-1.684 0.217-2.231 0.704l0.463 0.52zM21.142 19.433c0.369 0 0.717 0.070 1.047 0.21l0.272-0.641c-0.386-0.168-0.835-0.266-1.307-0.266-0.005 0-0.009 0-0.014 0h0.001v0.696zM22.186 19.642c0.308 0.134 0.507 0.325 0.625 0.567l0.626-0.304c-0.199-0.411-0.533-0.71-0.973-0.901l-0.278 0.638zM22.812 20.211c0.065 0.131 0.1 0.281 0.1 0.454h0.696c0-0.271-0.056-0.527-0.172-0.763l-0.624 0.308zM22.913 20.64l-0.041 0.561 0.694 0.051 0.041-0.561-0.694-0.050zM23.221 20.878l-2.757-0.014-0.003 0.696 2.757 0.014 0.003-0.696zM20.125 21.302c0.082 0.308 0.281 0.542 0.56 0.7l0.342-0.606c-0.138-0.078-0.202-0.168-0.229-0.272l-0.673 0.178zM20.686 22.003c0.282 0.158 0.636 0.221 1.030 0.221v-0.696c-0.331 0-0.551-0.054-0.69-0.132l-0.34 0.608zM21.716 22.224c0.423 0 0.889-0.115 1.388-0.323l-0.268-0.643c-0.447 0.186-0.819 0.269-1.121 0.269v0.696zM22.971 21.928h0.184v-0.696h-0.183v0.696zM22.808 21.554l-0.065 0.864 0.694 0.052 0.065-0.864-0.694-0.052z"></path>
</symbol>
<symbol id="icon-arrow-hero" viewBox="0 0 82 32">
<path fill="#FCFCFC" style="fill: var(--color1, #FCFCFC)" d="M81.414 17.414c0.781-0.781 0.781-2.047 0-2.828l-12.728-12.728c-0.781-0.781-2.047-0.781-2.828 0s-0.781 2.047 0 2.828l11.314 11.314-11.314 11.314c-0.781 0.781-0.781 2.047 0 2.828s2.047 0.781 2.828 0l12.728-12.728zM0 18h80v-4h-80v4z"></path>
</symbol>
<symbol id="icon-arrow-right" viewBox="0 0 82 32">
<path d="M81.414 17.414c0.781-0.781 0.781-2.047 0-2.828l-12.728-12.728c-0.781-0.781-2.047-0.781-2.828 0s-0.781 2.047 0 2.828l11.314 11.314-11.314 11.314c-0.781 0.781-0.781 2.047 0 2.828s2.047 0.781 2.828 0l12.728-12.728zM0 18h80v-4h-80v4z"></path>
</symbol>
<symbol id="icon-arrow-up" viewBox="0 0 32 32">
<path d="M27.414 12.586l-10-10c-0.781-0.781-2.047-0.781-2.828 0l-10 10c-0.781 0.781-0.781 2.047 0 2.828s2.047 0.781 2.828 0l6.586-6.586v19.172c0 1.105 0.895 2 2 2s2-0.895 2-2v-19.172l6.586 6.586c0.39 0.39 0.902 0.586 1.414 0.586s1.024-0.195 1.414-0.586c0.781-0.781 0.781-2.047 0-2.828z"></path>
</symbol>
</defs>
</svg>
